<svg width="900" height="640" xmlns="http://www.w3.org/2000/svg" font-family="Arial, sans-serif">
<text x="450.0" y="20" text-anchor="middle" font-size="18">Top Series by Episode Count</text>
<rect x="180" y="30" width="650.00" height="18" fill="#4C72B0" />
<text x="10" y="44" font-size="12">The-Clay-Travis-and-Buck-Sexton-Show</text>
<text x="840.0" y="44" font-size="12">{count}</text>
<rect x="180" y="60" width="149.43" height="18" fill="#4C72B0" />
<text x="10" y="74" font-size="12">Tim-Pool-Daily-News</text>
<text x="339.43384223918576" y="74" font-size="12">{count}</text>
<rect x="180" y="90" width="144.72" height="18" fill="#4C72B0" />
<text x="10" y="104" font-size="12">The-NPR-Politics-Podcast</text>
<text x="334.72010178117046" y="104" font-size="12">{count}</text>
<rect x="180" y="120" width="135.13" height="18" fill="#4C72B0" />
<text x="10" y="134" font-size="12">Brian-Kilmeade-Show</text>
<text x="325.1272264631043" y="134" font-size="12">{count}</text>
<rect x="180" y="150" width="120.16" height="18" fill="#4C72B0" />
<text x="10" y="164" font-size="12">The-Ben-Ferguson-Podcast</text>
<text x="310.1590330788804" y="164" font-size="12">{count}</text>
<rect x="180" y="180" width="118.34" height="18" fill="#4C72B0" />
<text x="10" y="194" font-size="12">John-Solomon-Reports</text>
<text x="308.3396946564885" y="194" font-size="12">{count}</text>
<rect x="180" y="210" width="116.11" height="18" fill="#4C72B0" />
<text x="10" y="224" font-size="12">The-MeidasTouch-Podcast</text>
<text x="306.10687022900765" y="224" font-size="12">{count}</text>
<rect x="180" y="240" width="99.24" height="18" fill="#4C72B0" />
<text x="10" y="254" font-size="12">The-Fox-News-Rundown</text>
<text x="289.23664122137404" y="254" font-size="12">{count}</text>
<rect x="180" y="270" width="93.53" height="18" fill="#4C72B0" />
<text x="10" y="284" font-size="12">The-Smerconish-Podcast</text>
<text x="283.53053435114504" y="284" font-size="12">{count}</text>
<rect x="180" y="300" width="86.25" height="18" fill="#4C72B0" />
<text x="10" y="314" font-size="12">American-Fever-Dream</text>
<text x="276.25318066157763" y="314" font-size="12">{count}</text>
<rect x="180" y="330" width="79.64" height="18" fill="#4C72B0" />
<text x="10" y="344" font-size="12">Pod-Save-America</text>
<text x="269.6374045801527" y="344" font-size="12">{count}</text>
<rect x="180" y="360" width="76.83" height="18" fill="#4C72B0" />
<text x="10" y="374" font-size="12">Human-Events-Daily-with-Jack-Posobiec</text>
<text x="266.82569974554707" y="374" font-size="12">{count}</text>
<rect x="180" y="390" width="75.75" height="18" fill="#4C72B0" />
<text x="10" y="404" font-size="12">Breaking-Points-with-Krystal-and-Saagar</text>
<text x="265.75063613231555" y="404" font-size="12">{count}</text>
<rect x="180" y="420" width="72.94" height="18" fill="#4C72B0" />
<text x="10" y="434" font-size="12">The-Remnant-with-Jonah-Goldberg</text>
<text x="262.9389312977099" y="434" font-size="12">{count}</text>
<rect x="180" y="450" width="69.96" height="18" fill="#4C72B0" />
<text x="10" y="464" font-size="12">Louder-with-Crowder</text>
<text x="259.9618320610687" y="464" font-size="12">{count}</text>
<rect x="180" y="480" width="69.88" height="18" fill="#4C72B0" />
<text x="10" y="494" font-size="12">The-President's-Daily-Brief</text>
<text x="259.8791348600509" y="494" font-size="12">{count}</text>
<rect x="180" y="510" width="68.23" height="18" fill="#4C72B0" />
<text x="10" y="524" font-size="12">Stay-Tuned-with-Preet</text>
<text x="258.2251908396946" y="524" font-size="12">{count}</text>
<rect x="180" y="540" width="64.67" height="18" fill="#4C72B0" />
<text x="10" y="554" font-size="12">Newt's-World</text>
<text x="254.66921119592877" y="554" font-size="12">{count}</text>
<rect x="180" y="570" width="61.94" height="18" fill="#4C72B0" />
<text x="10" y="584" font-size="12">Straight-White-American-Jesus</text>
<text x="251.94020356234097" y="584" font-size="12">{count}</text>
<rect x="180" y="600" width="58.47" height="18" fill="#4C72B0" />
<text x="10" y="614" font-size="12">Tangle</text>
<text x="248.46692111959288" y="614" font-size="12">{count}</text>
</svg>